<svg width="600" height="400" xmlns="http://www.w3.org/2000/svg">
  <defs>
    <linearGradient id="grad3" x1="0%" y1="0%" x2="100%" y2="100%">
      <stop offset="0%" style="stop-color:#667eea;stop-opacity:1" />
      <stop offset="50%" style="stop-color:#764ba2;stop-opacity:1" />
      <stop offset="100%" style="stop-color:#f093fb;stop-opacity:1" />
    </linearGradient>
  </defs>
  
  <!-- Background -->
  <rect width="600" height="400" fill="url(#grad3)"/>
  
  <!-- Analytics dashboard -->
  <g opacity="0.9">
    <!-- Main container -->
    <rect x="30" y="30" width="540" height="340" rx="10" fill="rgba(255,255,255,0.1)" stroke="rgba(255,255,255,0.3)" stroke-width="2"/>
    
    <!-- Header -->
    <rect x="30" y="30" width="540" height="50" rx="10" fill="rgba(255,255,255,0.15)"/>
    <rect x="50" y="48" width="150" height="15" rx="7" fill="rgba(255,255,255,0.4)"/>
    
    <!-- Circular progress indicators -->
    <g transform="translate(100, 150)">
      <circle cx="0" cy="0" r="40" fill="none" stroke="rgba(255,255,255,0.2)" stroke-width="8"/>
      <circle cx="0" cy="0" r="40" fill="none" stroke="rgba(255,255,255,0.7)" stroke-width="8" 
              stroke-dasharray="188" stroke-dashoffset="47" transform="rotate(-90)"/>
      <text x="0" y="8" text-anchor="middle" fill="white" font-size="20" font-weight="bold">75%</text>
    </g>
    
    <g transform="translate(250, 150)">
      <circle cx="0" cy="0" r="40" fill="none" stroke="rgba(255,255,255,0.2)" stroke-width="8"/>
      <circle cx="0" cy="0" r="40" fill="none" stroke="rgba(255,255,255,0.7)" stroke-width="8" 
              stroke-dasharray="188" stroke-dashoffset="94" transform="rotate(-90)"/>
      <text x="0" y="8" text-anchor="middle" fill="white" font-size="20" font-weight="bold">50%</text>
    </g>
    
    <g transform="translate(400, 150)">
      <circle cx="0" cy="0" r="40" fill="none" stroke="rgba(255,255,255,0.2)" stroke-width="8"/>
      <circle cx="0" cy="0" r="40" fill="none" stroke="rgba(255,255,255,0.7)" stroke-width="8" 
              stroke-dasharray="188" stroke-dashoffset="19" transform="rotate(-90)"/>
      <text x="0" y="8" text-anchor="middle" fill="white" font-size="20" font-weight="bold">90%</text>
    </g>
    
    <!-- Bar chart -->
    <g transform="translate(50, 240)">
      <rect x="0" y="80" width="40" height="20" rx="4" fill="rgba(255,255,255,0.3)"/>
      <rect x="0" y="40" width="40" height="40" rx="4" fill="rgba(255,255,255,0.5)"/>
      
      <rect x="60" y="60" width="40" height="40" rx="4" fill="rgba(255,255,255,0.3)"/>
      <rect x="60" y="20" width="40" height="40" rx="4" fill="rgba(255,255,255,0.5)"/>
      
      <rect x="120" y="70" width="40" height="30" rx="4" fill="rgba(255,255,255,0.3)"/>
      <rect x="120" y="30" width="40" height="40" rx="4" fill="rgba(255,255,255,0.5)"/>
      
      <rect x="180" y="50" width="40" height="50" rx="4" fill="rgba(255,255,255,0.3)"/>
      <rect x="180" y="10" width="40" height="40" rx="4" fill="rgba(255,255,255,0.5)"/>
      
      <rect x="240" y="75" width="40" height="25" rx="4" fill="rgba(255,255,255,0.3)"/>
      <rect x="240" y="35" width="40" height="40" rx="4" fill="rgba(255,255,255,0.5)"/>
      
      <rect x="300" y="65" width="40" height="35" rx="4" fill="rgba(255,255,255,0.3)"/>
      <rect x="300" y="25" width="40" height="40" rx="4" fill="rgba(255,255,255,0.5)"/>
      
      <rect x="360" y="55" width="40" height="45" rx="4" fill="rgba(255,255,255,0.3)"/>
      <rect x="360" y="15" width="40" height="40" rx="4" fill="rgba(255,255,255,0.5)"/>
      
      <rect x="420" y="80" width="40" height="20" rx="4" fill="rgba(255,255,255,0.3)"/>
      <rect x="420" y="40" width="40" height="40" rx="4" fill="rgba(255,255,255,0.5)"/>
    </g>
  </g>
</svg>
